# xmcd
#
# Track frame offsets: 
#        150
#        10310
#        22601
#        34437
#        45733
#        57792
#        71578
#        85806
#        97756
#        107981
#        118719
#        128146
#        138916
#        153287
#        164747
#        175931
#        187428
#        201960
#        216272
#        232628
#        244999
#        257015
#        267727
#        278822
#        288164
#
# Disc length: 3991 seconds
#
# Revision: 0
# Processed by: cddbd v1.5.2PL0 Copyright (c) Steve Scherf et al.
# Submitted via: ExactAudioCopy v0.99pb3
#
DISCID=6d0f9519
DTITLE=The Diplomats - Greatest Recordings
DYEAR=2004
DGENRE=Soul
TTITLE0=Perfect Love
TTITLE1=Cards On The Table
TTITLE2=Can't Get You Off My Mind
TTITLE3=Here's A Heart
TTITLE4=Accept Me
TTITLE5=I'm So Glad I Found You
TTITLE6=Our Love Has Changed
TTITLE7=Love Ain't What It Used To Be
TTITLE8=I Really Love You
TTITLE9=Jerking Time
TTITLE10=Honest To Goodness
TTITLE11=Don't Bug Me
TTITLE12=I Can Give You Love
TTITLE13=He's Got You Now
TTITLE14=Help Me
TTITLE15=Forever
TTITLE16=Sure As The Stars Shine
TTITLE17=So Far Away
TTITLE18=I've Got The Kind Of Love
TTITLE19=I Am A Witness
TTITLE20=Don't Ever Go
TTITLE21=Unchained Melody
TTITLE22=Walk With Me
TTITLE23=Hey, Mr Taxi Driver
TTITLE24=Soul Teacher - Sam, Erv and Tom
EXTD=
EXTT0=
EXTT1=
EXTT2=
EXTT3=
EXTT4=
EXTT5=
EXTT6=
EXTT7=
EXTT8=
EXTT9=
EXTT10=
EXTT11=
EXTT12=
EXTT13=
EXTT14=
EXTT15=
EXTT16=
EXTT17=
EXTT18=
EXTT19=
EXTT20=
EXTT21=
EXTT22=
EXTT23=
EXTT24=
PLAYORDER=
